<svg width="16" height="10" viewBox="0 0 16 10" fill="none" xmlns="http://www.w3.org/2000/svg">
<path fill-rule="evenodd" clip-rule="evenodd" d="M6.92645 9.38385C7.1452 9.62314 7.44185 9.75757 7.75117 9.75757C8.06049 9.75757 8.35715 9.62314 8.5759 9.38385L15.1749 2.16315C15.3874 1.92242 15.505 1.59999 15.5023 1.26532C15.4996 0.930647 15.377 0.610504 15.1607 0.373846C14.9444 0.137188 14.6518 0.00294876 14.346 4.00543e-05C14.0401 -0.0028677 13.7454 0.125788 13.5254 0.358297L7.75117 6.67657L1.97691 0.358297C1.7569 0.125788 1.46224 -0.0028677 1.15638 4.00543e-05C0.850524 0.00294876 0.557947 0.137188 0.341665 0.373846C0.125383 0.610504 0.00270191 0.930647 4.40974e-05 1.26532C-0.00261372 1.59999 0.114965 1.92242 0.327455 2.16315L6.92645 9.38385Z" fill="#494949"/>
</svg>
