<svg width="29" height="29" viewBox="0 0 29 29" fill="none" xmlns="http://www.w3.org/2000/svg">
<rect width="28.9826" height="28.9826" rx="7.02609" fill="#2F5755"/>
<path d="M5.26875 14.9303C5.26875 10.7902 5.26875 8.72013 6.55453 7.43348C7.84206 6.14771 9.91124 6.14771 14.0514 6.14771C18.1915 6.14771 20.2616 6.14771 21.5473 7.43348C22.834 8.72101 22.834 10.7902 22.834 14.9303C22.834 19.0704 22.834 21.1405 21.5473 22.4263C20.2624 23.7129 18.1915 23.7129 14.0514 23.7129C9.91124 23.7129 7.84118 23.7129 6.55453 22.4263C5.26875 21.1414 5.26875 19.0704 5.26875 14.9303Z" stroke="white" stroke-width="1.31739"/>
<path d="M17.5633 13.1739C18.5334 13.1739 19.3198 12.3875 19.3198 11.4174C19.3198 10.4473 18.5334 9.66089 17.5633 9.66089C16.5932 9.66089 15.8068 10.4473 15.8068 11.4174C15.8068 12.3875 16.5932 13.1739 17.5633 13.1739Z" stroke="white" stroke-width="1.31739"/>
<path d="M5.26875 15.3696L6.80747 14.0232C7.19314 13.686 7.69253 13.5079 8.20454 13.5251C8.71654 13.5422 9.20292 13.7532 9.56521 14.1154L13.3329 17.8831C13.6253 18.1755 14.0114 18.3553 14.4234 18.3909C14.8353 18.4266 15.2465 18.3158 15.5848 18.0781L15.8474 17.8937C16.3354 17.551 16.9251 17.3839 17.5203 17.4198C18.1155 17.4557 18.681 17.6924 19.1242 18.0913L21.9557 20.6391" stroke="white" stroke-width="1.31739" stroke-linecap="round"/>
</svg>
