<svg width="52" height="52" viewBox="0 0 52 52" fill="none" xmlns="http://www.w3.org/2000/svg">
<g clip-path="url(#clip0_332_548)">
<path d="M19.8047 3.25404C16.6491 5.03646 14.0573 6.52943 14.0451 6.5731C14.0339 6.61677 16.6827 8.18286 19.9306 10.0547C23.1796 11.9265 25.9116 13.457 26.0031 13.457C26.0945 13.457 28.8265 11.9265 32.0745 10.0547C35.3214 8.18286 37.9793 6.61779 37.9813 6.57614C37.9834 6.5345 35.9166 5.33911 33.3887 3.9213C30.8608 2.50247 28.2557 1.03997 27.5996 0.671301C26.6277 0.12388 26.326 0.000988963 25.9746 0.00809834C25.6029 0.0141921 24.7528 0.461067 19.8047 3.25404ZM0.0162549 37.442L0.00305176 44.5351C0.436724 45.2938 0.962817 45.6147 6.19532 48.5672C9.35188 50.3486 12.0138 51.8497 12.1113 51.9035C12.2799 51.9949 12.2891 51.6181 12.285 44.6113L12.2809 37.2226C4.00157 32.5782 1.24516 31.0324 0.81352 30.7897L0.0284424 30.3499L0.0162549 37.442ZM45.8352 33.7969L39.7211 37.2216L39.7109 51.999C40.0654 51.7897 42.7162 50.2815 45.8301 48.5123C50.1891 46.0362 51.545 45.2207 51.7207 44.9658L51.9492 44.6357C51.9929 36.6864 51.9929 33.477 51.9777 32.375L51.9492 30.3722L45.8352 33.7969ZM19.8849 34.6155L15.3431 37.2216L15.337 51.999C15.6904 51.7907 17.7481 50.6147 20.1368 49.2497L24.4796 46.7685C24.4776 35.3163 24.4654 31.9952 24.4522 32.0003C24.438 32.0043 22.3823 33.1815 19.8849 34.6155ZM27.5285 39.3778L27.5265 46.7685L36.6651 51.999L36.662 37.2216C30.3337 33.6009 28.2791 32.4238 28.014 32.2684L27.5306 31.9871L27.5285 39.3778ZM12.4282 14.5336L12.4424 19.8433C21.1788 24.8594 23.8875 26.4042 24.0967 26.5129L24.4776 26.7099L24.4816 16.1982C15.2425 10.8458 12.5277 9.27669 12.4871 9.25841C12.4465 9.23911 12.4201 11.6126 12.4282 14.5336ZM33.5309 12.7136L27.5031 16.1901C27.5194 24.3435 27.561 26.6987 27.6067 26.6845C27.6514 26.6703 30.3134 25.156 33.5227 23.3197C36.7311 21.4825 39.4134 19.9286 39.4824 19.8666C39.5809 19.7783 39.6033 18.5859 39.584 14.495L39.5596 9.2381L33.5309 12.7136ZM6.2461 25.0311C3.73243 26.4529 1.66563 27.6524 1.65446 27.6961C1.64227 27.7397 4.37227 29.318 7.72282 31.203L13.8125 34.6308C20.7787 30.619 22.8109 29.4196 22.8231 29.3769C22.8353 29.3343 20.1703 27.7682 16.9 25.8964C13.6307 24.0256 10.9241 22.4839 10.8855 22.4707C10.8479 22.4565 8.75977 23.6092 6.2461 25.0311ZM35.1203 25.8801C31.8409 27.7601 29.1667 29.3333 29.1789 29.3739C29.1901 29.4155 31.2335 30.6099 33.7188 32.0287L38.2383 34.6084C40.7702 33.1703 43.5002 31.6326 45.9388 30.2636C48.3763 28.8955 50.3608 27.7387 50.3476 27.694C50.3354 27.6493 48.2676 26.4489 45.7539 25.028C43.2402 23.6061 41.1613 22.4473 41.1328 22.4514C41.1054 22.4565 38.3988 23.9992 35.1203 25.8801Z" fill="#B7B7B7"/>
</g>
<defs>
<clipPath id="clip0_332_548">
<rect width="52" height="52" fill="white"/>
</clipPath>
</defs>
</svg>
