<svg width="16" height="10" viewBox="0 0 16 10" fill="none" xmlns="http://www.w3.org/2000/svg">
<path fill-rule="evenodd" clip-rule="evenodd" d="M8.57587 0.373718C8.35712 0.134427 8.06046 0 7.75115 0C7.44183 0 7.14517 0.134427 6.92642 0.373718L0.327428 7.59441C0.114937 7.83515 -0.00264065 8.15758 1.71661e-05 8.49225C0.00267498 8.82692 0.125357 9.14706 0.341639 9.38372C0.55792 9.62038 0.850498 9.75462 1.15635 9.75753C1.46221 9.76044 1.75688 9.63178 1.97688 9.39927L7.75115 3.081L13.5254 9.39927C13.7454 9.63178 14.0401 9.76044 14.3459 9.75753C14.6518 9.75462 14.9444 9.62038 15.1607 9.38372C15.3769 9.14706 15.4996 8.82692 15.5023 8.49225C15.5049 8.15758 15.3874 7.83515 15.1749 7.59441L8.57587 0.373718Z" fill="#494949"/>
</svg>
